<svg xmlns="http://www.w3.org/2000/svg" xmlns:svg="http://www.w3.org/2000/svg" xmlns:xlink="http://www.w3.org/1999/xlink" version="1.0" height="380pt" width="540pt" viewBox="635 177 548 386" ><defs><style type="text/css">
            @font-face {
                font-family: 'lt_regular';
                src: url('https://app.creately.com/diagram/assets/fonts/lato/lt-regular-webfont.woff2') format('woff2'),
                    url('https://app.creately.com/diagram/assets/fonts/lato/lt-regular-webfont.woff') format('woff');
                font-weight: normal;
                font-style: normal;
            }
            @font-face {
                font-family: 'noto_regular';
                src: url('https://app.creately.com/diagram/assets/fonts/noto/noto-regular.woff') format('woff'),
                     url('https://app.creately.com/diagram/assets/fonts/noto/noto-regular.woff2') format('woff2');
                font-weight: normal;
                font-style: normal;
            }
        p {
            margin: 0;
        }
        </style></defs><defs><style>
            span{ display: inline-block; }
        </style></defs><g id="dy3Eg3dSwku"><g transform="translate(860 240)"><rect x="0" y="0" width="100" height="100" fill="rgb(6,38,61)" stroke="#06263d" stroke-width="2" stroke-linecap="round" stroke-linejoin="round"/></g><g transform="translate(892.5, 280.5) rotate(0, 17.5, 9.5)" width="35" height="19"><text text-decoration="none" x="0" fill="#ffffff" font-size="10pt" font-family="lt_regular"  y="15">Entity</text><text text-decoration="none" x="35" fill="#4b4b4b" font-size="10pt" font-family="noto_regular"  y="15"></text></g></g><g id="Ele7CSMsQxA"><g transform="translate(1080 180)"><ellipse cx="50" cy="50" rx="50" ry="50" fill="rgb(81,192,170)" stroke="#51c0aa" stroke-width="2" stroke-linecap="round" stroke-linejoin="round"/></g><g transform="translate(1108, 220.5) rotate(0, 22, 9.5)" width="44" height="19"><text text-decoration="none" x="0" fill="rgb(255, 255, 255)" font-size="10pt" font-family="lt_regular"  y="15">Process</text><text text-decoration="none" x="45" fill="#4b4b4b" font-size="10pt" font-family="noto_regular"  y="15"></text></g></g><g id="SPO95xeRyIn"><mask id="54968" x="946" y="235" width="151" height="69" maskUnits="userSpaceOnUse"><rect x="946" y="235" width="151" height="69" fill="white" /><rect x="1007.0284272053257" y="265.5953094694695" width="34" height="24" fill="black" /></mask><g mask="url(#54968)"><path d="M 960,290 C 1021.665,290 1023.1003509341247,272.94768416509874 1083,249" fill="none" stroke="#7F7F7F" stroke-width="2" stroke-linecap="round" stroke-linejoin="round"/><path d="M 1083,249 L 1072.7618118698524,247.03623561968746 L 1077.184314712801,257.6518594169078 Z" fill="rgb(127,127,127)" stroke="#7F7F7F" stroke-width="2" stroke-linecap="round" stroke-linejoin="round"/></g><g transform="translate(1010.0284272053257, 268.5953094694695)" width="28" height="18"><text text-decoration="none" x="1.5" fill="rgb(80, 80, 80)" font-size="10pt" font-family="noto_regular"  y="15">data</text><text text-decoration="none" x="26.5" fill="#4b4b4b" font-size="10pt" font-family="noto_regular"  y="15"></text></g></g><g id="hZs6bcgztvF"><g transform="translate(640 340)"><ellipse cx="50" cy="50" rx="50" ry="50" fill="rgb(81,192,170)" stroke="#51c0aa" stroke-width="2" stroke-linecap="round" stroke-linejoin="round"/></g><g transform="translate(668, 380.5) rotate(0, 22, 9.5)" width="44" height="19"><text text-decoration="none" x="0" fill="rgb(255, 255, 255)" font-size="10pt" font-family="lt_regular"  y="15">Process</text><text text-decoration="none" x="45" fill="#4b4b4b" font-size="10pt" font-family="noto_regular"  y="15"></text></g></g><g id="hqhQ2sEkIiM"><mask id="b6cbb" x="723" y="276" width="151" height="109" maskUnits="userSpaceOnUse"><rect x="723" y="276" width="151" height="109" fill="white" /><rect x="778.9874504267402" y="313.63915112958296" width="34" height="24" fill="black" /></mask><g mask="url(#b6cbb)"><path d="M 860,290 C 798.3335,290 803.8160875157398,344.27064861850727 737,371" fill="none" stroke="#7F7F7F" stroke-width="2" stroke-linecap="round" stroke-linejoin="round"/><path d="M 737,371 L 747.2813518499023,372.7235634215742 L 742.6115627384835,362.2143736500041 Z" fill="rgb(127,127,127)" stroke="#7F7F7F" stroke-width="2" stroke-linecap="round" stroke-linejoin="round"/></g><g transform="translate(781.9874504267402, 316.63915112958296)" width="28" height="18"><text text-decoration="none" x="1.5" fill="rgb(80, 80, 80)" font-size="10pt" font-family="noto_regular"  y="15">data</text><text text-decoration="none" x="26.5" fill="#4b4b4b" font-size="10pt" font-family="noto_regular"  y="15"></text></g></g><g id="OI8ADfVeQdf"><g transform="translate(950 460)"><ellipse cx="50" cy="50" rx="50" ry="50" fill="white" stroke="#f05252" stroke-width="2" stroke-linecap="round" stroke-linejoin="round"/><path d="M 1.0102051443364388,40 L 98.98979485566356,40 M 1.0102051443364388,40 Z" fill="white" stroke="#f05252" stroke-width="2" stroke-linecap="round" stroke-linejoin="round"/></g><g transform="translate(993.5, 476) rotate(0, 6.5, 9)" width="13" height="18"><text text-decoration="none" x="1" fill="rgb(80, 80, 80)" font-size="10pt" font-family="noto_regular"  y="15">Id</text><text text-decoration="none" x="12" fill="#4b4b4b" font-size="10pt" font-family="noto_regular"  y="15"></text></g><g transform="translate(976, 503) rotate(0, 24, 9)" width="48" height="18"><text text-decoration="none" x="0.5" fill="rgb(80, 80, 80)" font-size="10pt" font-family="noto_regular"  y="15">Process</text><text text-decoration="none" x="47.5" fill="#4b4b4b" font-size="10pt" font-family="noto_regular"  y="15"></text></g></g><g id="NaoZeTvzkgI"><mask id="e36e0" x="896" y="326" width="99" height="151" maskUnits="userSpaceOnUse"><rect x="896" y="326" width="99" height="151" fill="white" /><rect x="922.7250335110364" y="392.2633977018786" width="34" height="24" fill="black" /></mask><g mask="url(#e36e0)"><path d="M 910,340 C 910,401.66499999999996 954.967665949941,397.91151839379967 981,463" fill="none" stroke="#7F7F7F" stroke-width="2" stroke-linecap="round" stroke-linejoin="round"/><path d="M 981,463 L 982.7815460334925,452.72853659597496 L 972.2461753854305,457.338955807712 Z" fill="rgb(127,127,127)" stroke="#7F7F7F" stroke-width="2" stroke-linecap="round" stroke-linejoin="round"/></g><g transform="translate(925.7250335110364, 395.2633977018786)" width="28" height="18"><text text-decoration="none" x="1.5" fill="rgb(80, 80, 80)" font-size="10pt" font-family="noto_regular"  y="15">data</text><text text-decoration="none" x="26.5" fill="#4b4b4b" font-size="10pt" font-family="noto_regular"  y="15"></text></g></g></svg>